<svg height="480pt" viewBox="-22 0 480 480" width="480pt" xmlns="http://www.w3.org/2000/svg"><path d="m304 472h-224c-8.835938 0-16-7.164062-16-16v-432c0-8.835938 7.164062-16 16-16h224c8.835938 0 16 7.164062 16 16v432c0 8.835938-7.164062 16-16 16zm0 0" fill="#b3e4e8"/><path d="m80 8h208c8.835938 0 16 7.164062 16 16v432c0 8.835938-7.164062 16-16 16h-208c-8.835938 0-16-7.164062-16-16v-432c0-8.835938 7.164062-16 16-16zm0 0" fill="#c0f5f9"/><g fill="#fdc9a6"><path d="m336 144h16c13.253906 0 24 10.746094 24 24s-10.746094 24-24 24h-16c-13.253906 0-24-10.746094-24-24s10.746094-24 24-24zm0 0"/><path d="m336 192h16c13.253906 0 24 10.746094 24 24s-10.746094 24-24 24h-16c-13.253906 0-24-10.746094-24-24s10.746094-24 24-24zm0 0"/><path d="m336 240h16c13.253906 0 24 10.746094 24 24s-10.746094 24-24 24h-16c-13.253906 0-24-10.746094-24-24s10.746094-24 24-24zm0 0"/><path d="m336 288h16c13.253906 0 24 10.746094 24 24s-10.746094 24-24 24h-16c-13.253906 0-24-10.746094-24-24s10.746094-24 24-24zm0 0"/><path d="m64 248h-56v-176c0-4.417969 3.582031-8 8-8h16c17.671875 0 32 14.328125 32 32zm0 0"/><path d="m60.238281 201.414062-52.238281-17.414062v176c0 22.089844 17.910156 40 40 40 30.929688 0 56-25.070312 56-56v-81.871094c0-27.546875-17.628906-52-43.761719-60.714844zm0 0"/></g><path d="m120 8h144v16c0 8.835938-7.164062 16-16 16h-112c-8.835938 0-16-7.164062-16-16zm0 0" fill="#6fbbc6"/><path d="m248 440h-112c-4.417969 0-8-3.582031-8-8s3.582031-8 8-8h112c4.417969 0 8 3.582031 8 8s-3.582031 8-8 8zm0 0" fill="#6fbbc6"/><path d="m112 160h32v64h-32zm0 0" fill="#99d8aa"/><path d="m112 160h32v8h-32zm0 0" fill="#8dc79d"/><path d="m176 160h32v64h-32zm0 0" fill="#99d8aa"/><path d="m240 160h32v64h-32zm0 0" fill="#99d8aa"/><path d="m160 248h16v48h-16zm0 0" fill="#f7ba61"/><path d="m104 224h176v32h-176zm0 0" fill="#99d8aa"/><path d="m104 128h176v32h-176zm0 0" fill="#99d8aa"/><path d="m112 128v-24l80-32 80 32v24zm0 0" fill="#99d8aa"/><path d="m144 200h-32c-4.417969 0-8-3.582031-8-8s3.582031-8 8-8h32c4.417969 0 8 3.582031 8 8s-3.582031 8-8 8zm0 0" fill="#85bc94"/><path d="m208 200h-32c-4.417969 0-8-3.582031-8-8s3.582031-8 8-8h32c4.417969 0 8 3.582031 8 8s-3.582031 8-8 8zm0 0" fill="#85bc94"/><path d="m272 200h-32c-4.417969 0-8-3.582031-8-8s3.582031-8 8-8h32c4.417969 0 8 3.582031 8 8s-3.582031 8-8 8zm0 0" fill="#85bc94"/><path d="m184 96h16v16h-16zm0 0" fill="#85bc94"/><path d="m240 336h24v56h-104v-24h80zm0 0" fill="#8dc79d"/><path d="m208 280h16v48h-16zm0 0" fill="#f7ba61"/><path d="m360 107.878906c-3.234375 0-6.152344-1.949218-7.390625-4.9375-1.238281-2.988281-.550781-6.429687 1.734375-8.71875 3.117188-3.121094 3.117188-8.179687 0-11.300781-3.128906-3.125-3.132812-8.195313-.007812-11.320313 3.125-3.128906 8.191406-3.132812 11.320312-.007812 9.375 9.371094 9.375 24.570312 0 33.941406-1.496094 1.507813-3.535156 2.351563-5.65625 2.34375zm0 0" fill="#99d8aa"/><path d="m382.625 130.503906c-3.234375 0-6.152344-1.949218-7.390625-4.9375-1.238281-2.988281-.554687-6.429687 1.734375-8.71875 15.621094-15.621094 15.621094-40.945312 0-56.566406-3.03125-3.140625-2.988281-8.128906.097656-11.214844 3.085938-3.085937 8.074219-3.128906 11.214844-.097656 21.871094 21.867188 21.871094 57.328125 0 79.199219-1.503906 1.496093-3.535156 2.335937-5.65625 2.335937zm0 0" fill="#99d8aa"/><path d="m405.257812 153.144531c-3.238281 0-6.152343-1.949219-7.390624-4.9375-1.238282-2.992187-.554688-6.429687 1.734374-8.71875 28.070313-28.140625 28.070313-73.691406 0-101.832031-2.082031-2.007812-2.914062-4.984375-2.183593-7.78125.734375-2.796875 2.917969-4.980469 5.714843-5.710938 2.796876-.734374 5.769532.101563 7.777344 2.179688 34.3125 34.390625 34.3125 90.066406 0 124.457031-1.5 1.5-3.53125 2.34375-5.652344 2.34375zm0 0" fill="#99d8aa"/><path d="m176 160h32v8h-32zm0 0" fill="#8dc79d"/><path d="m240 160h32v8h-32zm0 0" fill="#8dc79d"/><path d="m112 216h32v8h-32zm0 0" fill="#8dc79d"/><path d="m176 216h32v8h-32zm0 0" fill="#8dc79d"/><path d="m240 216h32v8h-32zm0 0" fill="#8dc79d"/><path d="m112 120h160v8h-160zm0 0" fill="#85bc94"/><path d="m144 320h96v48h-96zm0 0" fill="#99d8aa"/><path d="m208 344c0 8.835938-7.164062 16-16 16s-16-7.164062-16-16 7.164062-16 16-16 16 7.164062 16 16zm0 0" fill="#85bc94"/><path d="m56 456c0 13.253906 10.746094 24 24 24h224c13.253906 0 24-10.746094 24-24v-113.136719c2.605469.722657 5.296875 1.101563 8 1.136719h16c13.34375.058594 25.3125-8.203125 29.984375-20.703125 4.675781-12.496094 1.066406-26.585937-9.039063-35.296875 7.015626-6 11.054688-14.769531 11.054688-24s-4.039062-18-11.054688-24c7.015626-6 11.054688-14.769531 11.054688-24s-4.039062-18-11.054688-24c10.105469-8.710938 13.714844-22.800781 9.039063-35.296875-4.671875-12.5-16.640625-20.761719-29.984375-20.703125h-16c-2.703125.035156-5.394531.414062-8 1.136719v-113.136719c0-13.253906-10.746094-24-24-24h-224c-13.253906 0-24 10.746094-24 24v40.167969c-6.894531-5.265625-15.324219-8.132813-24-8.167969h-16c-8.835938 0-16 7.164062-16 16v288c.0273438 26.5 21.5 47.972656 48 48 2.675781-.015625 5.347656-.203125 8-.550781zm280-304h16c8.835938 0 16 7.164062 16 16s-7.164062 16-16 16h-16c-8.835938 0-16-7.164062-16-16s7.164062-16 16-16zm0 48h16c8.835938 0 16 7.164062 16 16s-7.164062 16-16 16h-16c-8.835938 0-16-7.164062-16-16s7.164062-16 16-16zm0 48h16c8.835938 0 16 7.164062 16 16s-7.164062 16-16 16h-16c-8.835938 0-16-7.164062-16-16s7.164062-16 16-16zm0 48h16c8.835938 0 16 7.164062 16 16s-7.164062 16-16 16h-16c-8.835938 0-16-7.164062-16-16s7.164062-16 16-16zm-208-280h128v8c0 4.417969-3.582031 8-8 8h-112c-4.417969 0-8-3.582031-8-8zm-56 8c0-4.417969 3.582031-8 8-8h32v8c0 13.253906 10.746094 24 24 24h112c13.253906 0 24-10.746094 24-24v-8h32c4.417969 0 8 3.582031 8 8v123.054688c-5.644531 6.324218-8.503906 14.660156-7.925781 23.117187.574219 8.457031 4.53125 16.324219 10.980469 21.828125-7.015626 6-11.054688 14.769531-11.054688 24s4.039062 18 11.054688 24c-7.015626 6-11.054688 14.769531-11.054688 24s4.039062 18 11.054688 24c-6.546876 5.597656-10.523438 13.625-11.007813 22.226562-.480469 8.597657 2.570313 17.023438 8.449219 23.316407-.296875.789062-.464844 1.617187-.496094 2.457031v120c0 4.417969-3.582031 8-8 8h-224c-4.417969 0-8-3.582031-8-8v-52.710938c24.148438-9.792968 39.964844-33.230468 40-59.289062v-80h48v32h16v-32h104c4.417969 0 8-3.582031 8-8v-32c0-4.417969-3.582031-8-8-8v-48c4.417969 0 8-3.582031 8-8v-32c0-4.417969-3.582031-8-8-8v-16c0-3.273438-1.992188-6.21875-5.03125-7.433594l-80-32c-1.90625-.757812-4.03125-.757812-5.9375 0l-80 32c-3.039062 1.214844-5.03125 4.160156-5.03125 7.433594v16c-4.417969 0-8 3.582031-8 8v32c0 4.417969 3.582031 8 8 8v48c-2.488281.03125-4.816406 1.238281-6.273438 3.257812-6.761718-9.074218-15.578124-16.410156-25.726562-21.410156zm200 112v16h-160v-16zm-152-16v-10.585938l72-28.796874 72 28.796874v10.585938zm128 64v-16h16v16zm16 16v16h-16v-16zm-32-32v48h-16v-48zm-48 16v-16h16v16zm16 16v16h-16v-16zm-32-32v48h-16v-48zm-48 16v-16h16v16zm16 16v16h-16v-16zm8 32h128v16h-160v-16zm-96 160c-17.671875 0-32-14.328125-32-32v-288h16c11.394531.027344 21.207031 8.039062 23.511719 19.199219.132812.390625.296875.769531.488281 1.136719v110.527343c.027344.84375.195312 1.675781.496094 2.464844.363281 1.167969.988281 2.238281 1.832031 3.128906.070313.078125.191406.109375.265625.183594.6875.644531 1.484375 1.167969 2.351562 1.542969h.039063c21.214844 8.5 35.09375 29.089844 35.015625 51.945312v81.871094c-.027344 26.5-21.5 47.972656-48 48zm0 0"/><path d="m248 424h-112c-4.417969 0-8 3.582031-8 8s3.582031 8 8 8h112c4.417969 0 8-3.582031 8-8s-3.582031-8-8-8zm0 0"/><path d="m184 96h16v16h-16zm0 0"/><path d="m264 328h-16v-8c0-4.417969-3.582031-8-8-8h-16v-32h-16v32h-64c-4.417969 0-8 3.582031-8 8v48c0 4.417969 3.582031 8 8 8h8v16c0 4.417969 3.582031 8 8 8h104c4.417969 0 8-3.582031 8-8v-56c0-4.417969-3.582031-8-8-8zm-54.238281 0h22.238281v32h-22.238281c8.320312-9.042969 8.320312-22.957031 0-32zm-17.761719 8c4.417969 0 8 3.582031 8 8s-3.582031 8-8 8-8-3.582031-8-8 3.582031-8 8-8zm-40 24v-32h22.238281c-8.320312 9.042969-8.320312 22.957031 0 32zm104 24h-88v-8h72c4.417969 0 8-3.582031 8-8v-24h8zm0 0"/><path d="m354.34375 105.535156c3.125 3.125 8.1875 3.125 11.3125 0 9.375-9.371094 9.375-24.570312 0-33.941406-3.128906-3.125-8.195312-3.121094-11.320312.007812-3.125 3.125-3.121094 8.195313.007812 11.320313 3.117188 3.121094 3.117188 8.179687 0 11.300781-3.121094 3.125-3.121094 8.1875 0 11.3125zm0 0"/><path d="m376.96875 128.167969c3.125 3.125 8.1875 3.125 11.3125 0 21.871094-21.871094 21.871094-57.332031 0-79.199219-3.140625-3.03125-8.128906-2.988281-11.214844.097656-3.085937 3.085938-3.128906 8.074219-.097656 11.214844 15.621094 15.621094 15.621094 40.945312 0 56.566406-1.503906 1.5-2.347656 3.535156-2.347656 5.660156s.84375 4.160157 2.347656 5.660157zm0 0"/><path d="m399.601562 26.34375c-3.125 3.125-3.125 8.1875 0 11.3125 28.070313 28.140625 28.070313 73.691406 0 101.832031-2.082031 2.007813-2.914062 4.984375-2.183593 7.78125.734375 2.796875 2.917969 4.980469 5.714843 5.710938 2.796876.734375 5.769532-.101563 7.777344-2.179688 34.3125-34.390625 34.3125-90.066406 0-124.457031-3.121094-3.121094-8.1875-3.121094-11.308594 0zm0 0"/></svg>