<svg height="512pt" viewBox="0 -13 512 512" width="512pt" xmlns="http://www.w3.org/2000/svg"><path d="m486.167969 141.070312h-460.335938c-14.265625 0-25.832031 11.5625-25.832031 25.832032v292.6875c0 14.265625 11.566406 25.832031 25.832031 25.832031h460.335938c14.265625 0 25.832031-11.566406 25.832031-25.832031v-292.6875c0-14.269532-11.566406-25.832032-25.832031-25.832032zm0 0" fill="#b1e2fd"/><path d="m30.90625 459.589844v-292.6875c0-14.269532 11.5625-25.832032 25.828125-25.832032h-30.902344c-14.265625 0-25.832031 11.5625-25.832031 25.832032v292.6875c0 14.265625 11.566406 25.832031 25.832031 25.832031h30.902344c-14.265625 0-25.828125-11.566406-25.828125-25.832031zm0 0" fill="#80c4e6"/><g fill="#4b5562"><path d="m79.371094 201.378906c-4.265625 0-7.726563-3.460937-7.726563-7.726562v-13.457032c0-4.265624 3.460938-7.726562 7.726563-7.726562 4.269531 0 7.726562 3.460938 7.726562 7.726562v13.457032c0 4.265625-3.457031 7.726562-7.726562 7.726562zm0 0"/><path d="m228.066406 201.378906c-4.269531 0-7.726562-3.460937-7.726562-7.726562v-13.457032c0-4.265624 3.457031-7.726562 7.726562-7.726562 4.265625 0 7.726563 3.460938 7.726563 7.726562v13.457032c0 4.265625-3.460938 7.726562-7.726563 7.726562zm0 0"/><path d="m153.71875 208.558594c-9.378906 0-18.1875-3.921875-24.167969-10.757813-2.808593-3.214843-2.480469-8.09375.734375-10.902343 3.210938-2.808594 8.09375-2.484376 10.902344.730468 3.042969 3.480469 7.609375 5.476563 12.53125 5.476563s9.492188-1.996094 12.53125-5.476563c2.808594-3.210937 7.691406-3.539062 10.902344-.730468 3.214844 2.808593 3.542968 7.6875.734375 10.902343-5.976563 6.835938-14.785157 10.757813-24.167969 10.757813zm0 0"/></g><path d="m486.167969 141.070312h-179.730469l-59.777344 131.921876c-9.214844 20.335937-8.550781 43.003906.972656 62.160156l-3.648437 8.054687c-5.085937 11.21875-5.496094 23.75-1.15625 35.277344 4.339844 11.53125 12.910156 20.679687 24.128906 25.761719 6.027344 2.730468 12.425781 4.117187 19.027344 4.117187 18.066406 0 34.558594-10.632812 42.015625-27.089843l3.675781-8.109376c2.28125-.613281 4.546875-1.339843 6.78125-2.179687 18.15625-6.847656 32.5625-20.347656 40.570313-38.015625l47.496094-104.820312c.269531.125.539062.25.8125.375 6.765624 3.0625 13.953124 4.621093 21.355468 4.621093h.003906c20.285157 0 38.804688-11.941406 47.183594-30.421875 7.007813-15.464844 5.753906-32.605468-1.882812-46.441406l5.277344-11.640625c-3.84375-2.265625-8.320313-3.570313-13.105469-3.570313zm0 0" fill="#80c4e6"/><path d="m51.507812 244.085938h408.984376v189.828124h-408.984376zm0 0" fill="#ebebeb"/><path d="m136.539062 390.808594c-17.558593-.433594-30.765624-9.867188-30.765624-17.996094 0-4.0625 3.628906-10.15625 8.125-10.15625 5.515624 0 9.867187 9.429688 22.640624 10.882812v-28.878906c-13.207031-4.933594-28.152343-10.59375-28.152343-29.167968 0-18.433594 13.640625-26.414063 28.152343-28.300782v-4.0625c0-1.886718 2.175782-3.628906 4.933594-3.628906 2.46875 0 4.933594 1.742188 4.933594 3.628906v3.773438c9.433594.289062 24.816406 3.046875 24.816406 11.464844 0 3.335937-2.324218 10.011718-7.691406 10.011718-4.0625 0-7.402344-4.640625-17.125-5.367187v25.539062c12.917969 4.789063 27.429688 11.320313 27.429688 31.058594 0 17.851563-11.175782 28.152344-27.429688 30.765625v4.5c0 1.882812-2.464844 3.625-4.933594 3.625-2.757812 0-4.933594-1.738281-4.933594-3.625zm1.160157-65.449219v-21.914063c-7.253907 1.160157-11.609375 4.644532-11.609375 10.160157 0 6.382812 4.933594 9.140625 11.609375 11.753906zm7.546875 22.785156v25.25c6.386718-1.304687 10.882812-5.078125 10.882812-11.898437 0-7.113282-4.644531-10.59375-10.882812-13.351563zm0 0" fill="#80c4e6"/><path d="m467.726562 189.96875c4.761719-10.503906.105469-22.875-10.398437-27.636719l27.75-61.242187c7.25-16 .15625-34.84375-15.839844-42.089844l-46.214843 39.644531 1.226562 59.636719c-7.246094 15.996094-.15625 34.839844 15.839844 42.089844 10.503906 4.757812 22.878906.101562 27.636718-10.402344zm0 0" fill="#f5e277"/><path d="m259.757812 244.085938-13.097656 28.90625c-9.214844 20.335937-8.550781 43.003906.972656 62.160156l-3.648437 8.054687c-5.085937 11.21875-5.496094 23.75-1.15625 35.277344 4.339844 11.53125 12.910156 20.679687 24.128906 25.761719 6.027344 2.730468 12.429688 4.117187 19.027344 4.117187 18.066406 0 34.558594-10.632812 42.015625-27.089843l3.675781-8.109376c2.285157-.613281 4.546875-1.339843 6.78125-2.179687 18.15625-6.847656 32.5625-20.347656 40.570313-38.015625l40.273437-88.882812zm0 0" fill="#d5d4da"/><path d="m427.796875 150.457031-72.914063 160.910157-48.652343 6.207031-27.410157-40.671875 72.914063-160.914063 45.59375.542969zm0 0" fill="#6380d2"/><path d="m469.238281 59-41.441406 91.453125-76.0625-34.464844 41.4375-91.457031c9.519531-21.003906 34.261719-30.316406 55.265625-20.796875 21.007812 9.519531 30.320312 34.257813 20.800781 55.265625zm0 0" fill="#7f9ae2"/><path d="m287.230469 322.644531-15.097657 33.316407c-3.464843 7.65625-.074218 16.667968 7.578126 20.136718 7.65625 3.46875 16.671874.074219 20.136718-7.578125l15.097656-33.316406zm0 0" fill="#6380d2"/><path d="m354.882812 311.367188-4.007812 8.847656c-4.761719 10.507812-13.320312 18.078125-23.320312 21.851562-10.007813 3.757813-21.4375 3.707032-31.945313-1.054687-21.003906-9.515625-30.316406-34.257813-20.796875-55.265625l4.007812-8.84375zm0 0" fill="#7f9ae2"/></svg>